<svg xmlns="http://www.w3.org/2000/svg" viewBox="0 0 773 142.42"><title>windows 11 logo</title><path d="M404.66,554.4H387.08l-17.14-65.23L352.62,554.4h-18l-23.56-84.79H327l17,67.44,18.55-67.44h16.1l17.44,67.84,16.14-67.84h15.39Z" transform="translate(-125.5 -440.79)" style="fill:#0078d4"/><path d="M450.17,475.81a7.41,7.41,0,0,1-2.53,5.73,9.08,9.08,0,0,1-12.06,0,7.49,7.49,0,0,1-2.47-5.73,7.75,7.75,0,0,1,2.47-5.85,8.56,8.56,0,0,1,6-2.35A8.26,8.26,0,0,1,447.7,470a7.8,7.8,0,0,1,2.47,5.79Zm-15.9,78.58v-61.1h14.25v61.1Z" transform="translate(-125.5 -440.79)" style="fill:#0078d4"/><path d="M503.35,554.4v-34c0-8.91-2.77-16.6-11.75-16.6S477,511.82,477,520v34.44H463.07v-61.1H477v8.64h.24c4.62-7.16,11.3-9.67,20-9.67,6.55,0,11.62,1.61,15.2,5.8s5.21,10.54,5.21,19.06v37.28Z" transform="translate(-125.5 -440.79)" style="fill:#0078d4"/><path d="M573.32,554.4v-7.87h-.24c-4.42,7.44-13.45,9.16-19.75,9.16-18.71,0-25.58-14.53-25.58-30q0-15.38,7.66-24.61c5.15-6.19,12-8.87,20.63-8.87,13.4,0,17,7.45,17,7.45h.24V464.29h14.45V554.4Zm.12-34.82c0-7.38-4.74-15.77-14.76-15.77-11.45,0-15.9,10-15.9,21.45,0,10,4.2,19.13,15.11,19.28,10.69,0,15.47-10.19,15.55-18.62Z" transform="translate(-125.5 -440.79)" style="fill:#0078d4"/><path d="M660.69,523.57c0,21.17-12.65,32.63-31.65,32.63-20.66,0-31.25-12.37-31.25-31.3,0-21.67,12.69-32.93,32.75-32.93C648.94,492,660.69,503.72,660.69,523.57Zm-14.84.48c0-9.42-3.34-19.88-16.08-19.88-12.22,0-17,9.1-17,20.25,0,12.11,5.7,19.82,16.89,19.82,12,0,16.08-9.19,16.17-20.18Z" transform="translate(-125.5 -440.79)" style="fill:#0078d4"/><path d="M737.15,554.4H721.43l-12-44.22L696.52,554.4H681.26l-17.78-60.92H678.4L690,540.81l13.57-47.33h14l12.1,47.2L741,493.48h13.67Z" transform="translate(-125.5 -440.79)" style="fill:#0078d4"/><path d="M799.41,537.39c0,13.6-12.34,18.91-24.7,18.91a51.22,51.22,0,0,1-16.07-3.1V538.72a28.14,28.14,0,0,0,16.71,6.15c6.68,0,9.68-2.11,9.68-6.11.16-3.22-1.79-5-4.13-6.32a60.64,60.64,0,0,0-7.54-3.56,39,39,0,0,1-9-5A15.55,15.55,0,0,1,760,518.2a18.49,18.49,0,0,1-1.61-7.45c0-11,9.16-18.75,23.81-18.75,9.68,0,13.87,2.37,13.87,2.37v13.75s-6.88-4.75-14-4.8c-5.12,0-9,1.86-9.06,6.08,0,5.44,6.62,8.09,10.6,9.7,5.79,2.33,10,4.82,12.4,7.68s3.4,5.73,3.4,10.6Z" transform="translate(-125.5 -440.79)" style="fill:#0078d4"/><path d="M855.45,467.13V554.4H840.88V484.79s-5,4.62-17.83,8V480.33c19.07-7.05,25.91-13.2,25.91-13.2Z" transform="translate(-125.5 -440.79)" style="fill:#0078d4"/><rect width="67.5" height="67.5" style="fill:#0078d4"/><rect x="74.91" width="67.5" height="67.5" style="fill:#0078d4"/><rect y="74.92" width="67.5" height="67.5" style="fill:#0078d4"/><rect x="74.91" y="74.92" width="67.5" height="67.5" style="fill:#0078d4"/><path d="M898.5,467.13V554.4H883.92V484.79s-5,4.62-17.83,8V480.33c19.07-7.05,25.91-13.2,25.91-13.2Z" transform="translate(-125.5 -440.79)" style="fill:#0078d4"/></svg>